<svg preserveAspectRatio="none" width="100%" height="100%" overflow="visible" style="display: block;" viewBox="0 0 24 24" fill="none" xmlns="http://www.w3.org/2000/svg">
<g id="Frame">
<rect width="24" height="24" rx="6" fill="url(#paint0_linear_78_495)"/>
<rect x="0.5" y="0.5" width="23" height="23" rx="5.5" stroke="url(#paint1_linear_78_495)" stroke-opacity="0.25"/>
<g id="Vector" filter="url(#filter0_d_78_495)">
<path d="M10.156 10.9997C9.64302 10.4868 9.38652 9.86831 9.38652 9.14418C9.38652 8.42018 9.64302 7.80168 10.156 7.28868C10.669 6.77568 11.2875 6.51918 12.0115 6.51918C12.7355 6.51918 13.354 6.77568 13.867 7.28868C14.38 7.80168 14.6365 8.42018 14.6365 9.14418C14.6365 9.86831 14.38 10.4868 13.867 10.9997C13.354 11.5127 12.7355 11.7692 12.0115 11.7692C11.2875 11.7692 10.669 11.5127 10.156 10.9997ZM6.38652 17.4808V15.8134C6.38652 15.4461 6.48627 15.106 6.68577 14.793C6.88527 14.48 7.15189 14.2394 7.48564 14.0711C8.22689 13.7077 8.97471 13.4352 9.72908 13.2534C10.4835 13.0717 11.2443 12.9808 12.0115 12.9808C12.7788 12.9808 13.5396 13.0717 14.294 13.2534C15.0483 13.4352 15.7961 13.7077 16.5374 14.0711C16.8711 14.2394 17.1378 14.48 17.3373 14.793C17.5368 15.106 17.6365 15.4461 17.6365 15.8134V17.4808H6.38652ZM7.51152 16.3558H16.5115V15.8134C16.5115 15.6615 16.4675 15.5209 16.3795 15.3915C16.2915 15.2622 16.1721 15.1567 16.0212 15.075C15.375 14.7567 14.7161 14.5156 14.0446 14.3516C13.373 14.1877 12.6953 14.1058 12.0115 14.1058C11.3278 14.1058 10.6501 14.1877 9.97846 14.3516C9.30696 14.5156 8.64808 14.7567 8.00183 15.075C7.85096 15.1567 7.73152 15.2622 7.64352 15.3915C7.55552 15.5209 7.51152 15.6615 7.51152 15.8134V16.3558ZM13.0709 10.2036C13.3646 9.90981 13.5115 9.55668 13.5115 9.14418C13.5115 8.73168 13.3646 8.37856 13.0709 8.08481C12.7771 7.79106 12.424 7.64418 12.0115 7.64418C11.599 7.64418 11.2459 7.79106 10.9521 8.08481C10.6584 8.37856 10.5115 8.73168 10.5115 9.14418C10.5115 9.55668 10.6584 9.90981 10.9521 10.2036C11.2459 10.4973 11.599 10.6442 12.0115 10.6442C12.424 10.6442 12.7771 10.4973 13.0709 10.2036Z" fill="url(#paint2_linear_78_495)"/>
</g>
</g>
<defs>
<filter id="filter0_d_78_495" x="6.38652" y="6.51918" width="11.25" height="11.9616" filterUnits="userSpaceOnUse" color-interpolation-filters="sRGB">
<feFlood flood-opacity="0" result="BackgroundImageFix"/>
<feColorMatrix in="SourceAlpha" type="matrix" values="0 0 0 0 0 0 0 0 0 0 0 0 0 0 0 0 0 0 127 0" result="hardAlpha"/>
<feOffset dy="1"/>
<feComposite in2="hardAlpha" operator="out"/>
<feColorMatrix type="matrix" values="0 0 0 0 0 0 0 0 0 0 0 0 0 0 0 0 0 0 0.15 0"/>
<feBlend mode="normal" in2="BackgroundImageFix" result="effect1_dropShadow_78_495"/>
<feBlend mode="normal" in="SourceGraphic" in2="effect1_dropShadow_78_495" result="shape"/>
</filter>
<linearGradient id="paint0_linear_78_495" x1="12" y1="0" x2="12" y2="24" gradientUnits="userSpaceOnUse">
<stop stop-color="#068076"/>
<stop offset="1" stop-color="#001C19"/>
</linearGradient>
<linearGradient id="paint1_linear_78_495" x1="12" y1="0" x2="12" y2="24" gradientUnits="userSpaceOnUse">
<stop stop-color="#9EEBE1"/>
<stop offset="1" stop-color="#068076"/>
</linearGradient>
<linearGradient id="paint2_linear_78_495" x1="12.0115" y1="6.51918" x2="12.0115" y2="17.4808" gradientUnits="userSpaceOnUse">
<stop stop-color="white"/>
<stop offset="1" stop-color="#63DBCD"/>
</linearGradient>
</defs>
</svg>
