<svg preserveAspectRatio="none" width="100%" height="100%" overflow="visible" style="display: block;" viewBox="0 0 24 24" fill="none" xmlns="http://www.w3.org/2000/svg">
<g id="Frame">
<rect width="24" height="24" rx="6" fill="url(#paint0_linear_78_504)"/>
<rect x="0.5" y="0.5" width="23" height="23" rx="5.5" stroke="url(#paint1_linear_78_504)" stroke-opacity="0.25"/>
<g id="Vector" filter="url(#filter0_d_78_504)">
<path d="M18.5185 11.2478V17.2247C18.5185 17.6036 18.3872 17.9243 18.1247 18.1868C17.8622 18.4493 17.5416 18.5805 17.1628 18.5805H6.74928C6.37053 18.5805 6.04991 18.4493 5.78741 18.1868C5.52491 17.9243 5.39366 17.6036 5.39366 17.2247V11.2333C5.09166 10.9853 4.86497 10.6635 4.7136 10.2677C4.5621 9.87208 4.55897 9.44495 4.70422 8.98633L5.46285 6.50833C5.56285 6.19295 5.73253 5.93864 5.97191 5.74539C6.21141 5.55214 6.49747 5.45551 6.8301 5.45551H17.0676C17.4003 5.45551 17.6845 5.54783 17.92 5.73245C18.1556 5.91708 18.3272 6.17095 18.4348 6.49408L19.2079 8.98633C19.3532 9.44495 19.35 9.87064 19.1985 10.2634C19.0472 10.6563 18.8205 10.9844 18.5185 11.2478ZM13.6062 10.7055C14.0158 10.7055 14.3237 10.5803 14.53 10.3298C14.7362 10.0793 14.8206 9.81026 14.7831 9.52276L14.3273 6.58051H12.5185V9.54301C12.5185 9.85839 12.6252 10.131 12.8387 10.3609C13.0522 10.5906 13.308 10.7055 13.6062 10.7055ZM10.2312 10.7055C10.5763 10.7055 10.8563 10.5906 11.0712 10.3609C11.2862 10.131 11.3937 9.85839 11.3937 9.54301V6.58051H9.58485L9.12922 9.55164C9.08872 9.81801 9.17235 10.077 9.3801 10.3285C9.58785 10.5798 9.87153 10.7055 10.2312 10.7055ZM6.89366 10.7055C7.17153 10.7055 7.41047 10.6086 7.61047 10.4149C7.81047 10.2211 7.93403 9.97764 7.98116 9.68439L8.42235 6.58051H6.8301C6.74835 6.58051 6.68347 6.59851 6.63547 6.63451C6.58735 6.67064 6.55128 6.72476 6.52728 6.79689L5.80597 9.2372C5.70697 9.55933 5.75366 9.88458 5.94603 10.213C6.13828 10.5413 6.45416 10.7055 6.89366 10.7055ZM17.0187 10.7055C17.4244 10.7055 17.735 10.5461 17.9503 10.2274C18.1657 9.90864 18.2177 9.57858 18.1062 9.2372L17.3473 6.78245C17.3233 6.71033 17.2873 6.65864 17.2393 6.62739C17.1912 6.59614 17.1263 6.58051 17.0445 6.58051H15.4898L15.931 9.68439C15.9781 9.97764 16.1017 10.2211 16.3017 10.4149C16.5017 10.6086 16.7407 10.7055 17.0187 10.7055ZM6.74928 17.4555H17.1628C17.2301 17.4555 17.2853 17.4339 17.3286 17.3906C17.372 17.3474 17.3937 17.2921 17.3937 17.2247V11.7641C17.3119 11.794 17.2436 11.8125 17.1887 11.8196C17.134 11.8269 17.0773 11.8305 17.0187 11.8305C16.6812 11.8305 16.3843 11.7695 16.128 11.6473C15.8718 11.5252 15.6234 11.3295 15.3829 11.0603C15.1724 11.2949 14.9234 11.482 14.6359 11.6215C14.3484 11.7608 14.0205 11.8305 13.6523 11.8305C13.334 11.8305 13.034 11.7644 12.7523 11.6321C12.4705 11.5 12.2052 11.3094 11.9562 11.0603C11.7244 11.3094 11.4619 11.5 11.1687 11.6321C10.8753 11.7644 10.5782 11.8305 10.2773 11.8305C9.93878 11.8305 9.62147 11.7692 9.32535 11.6466C9.02922 11.524 8.76866 11.3285 8.54366 11.0603C8.22816 11.3756 7.93747 11.5829 7.6716 11.682C7.40585 11.781 7.14653 11.8305 6.89366 11.8305C6.83491 11.8305 6.77428 11.8269 6.71178 11.8196C6.64928 11.8125 6.58485 11.794 6.51847 11.7641V17.2247C6.51847 17.2921 6.54016 17.3474 6.58353 17.3906C6.62678 17.4339 6.68203 17.4555 6.74928 17.4555Z" fill="url(#paint2_linear_78_504)"/>
</g>
</g>
<defs>
<filter id="filter0_d_78_504" x="4.59758" y="5.45551" width="14.717" height="14.125" filterUnits="userSpaceOnUse" color-interpolation-filters="sRGB">
<feFlood flood-opacity="0" result="BackgroundImageFix"/>
<feColorMatrix in="SourceAlpha" type="matrix" values="0 0 0 0 0 0 0 0 0 0 0 0 0 0 0 0 0 0 127 0" result="hardAlpha"/>
<feOffset dy="1"/>
<feComposite in2="hardAlpha" operator="out"/>
<feColorMatrix type="matrix" values="0 0 0 0 0 0 0 0 0 0 0 0 0 0 0 0 0 0 0.15 0"/>
<feBlend mode="normal" in2="BackgroundImageFix" result="effect1_dropShadow_78_504"/>
<feBlend mode="normal" in="SourceGraphic" in2="effect1_dropShadow_78_504" result="shape"/>
</filter>
<linearGradient id="paint0_linear_78_504" x1="12" y1="0" x2="12" y2="24" gradientUnits="userSpaceOnUse">
<stop stop-color="#A85504"/>
<stop offset="1" stop-color="#271002"/>
</linearGradient>
<linearGradient id="paint1_linear_78_504" x1="12" y1="0" x2="12" y2="24" gradientUnits="userSpaceOnUse">
<stop stop-color="#FFCFB0"/>
<stop offset="1" stop-color="#A85504"/>
</linearGradient>
<linearGradient id="paint2_linear_78_504" x1="11.9561" y1="5.45551" x2="11.9561" y2="18.5805" gradientUnits="userSpaceOnUse">
<stop stop-color="white"/>
<stop offset="1" stop-color="#FBB07E"/>
</linearGradient>
</defs>
</svg>
