<svg preserveAspectRatio="none" width="100%" height="100%" overflow="visible" style="display: block;" viewBox="1 0.5 32 32" fill="none" xmlns="http://www.w3.org/2000/svg">
<g id="Frame">
<rect x="1" y="0.5" width="32" height="32" rx="8" fill="#0F223D"/>
<path id="Vector" d="M13.3125 25.251C12.1567 24.7517 11.1487 24.0718 10.2885 23.2115C9.42817 22.3513 8.74833 21.3433 8.249 20.1875C7.74967 19.0317 7.5 17.7999 7.5 16.4923C7.5 15.1846 7.74967 13.9554 8.249 12.8048C8.74833 11.6541 9.42817 10.6487 10.2885 9.7885C11.1487 8.92817 12.1567 8.24833 13.3125 7.749C14.4683 7.24967 15.7001 7 17.0078 7C18.3154 7 19.5446 7.24967 20.6953 7.749C21.8459 8.24833 22.8513 8.92817 23.7115 9.7885C24.5718 10.6487 25.2517 11.6541 25.751 12.8048C26.2503 13.9554 26.5 15.1846 26.5 16.4923C26.5 17.7999 26.2503 19.0317 25.751 20.1875C25.2517 21.3433 24.5718 22.3513 23.7115 23.2115C22.8513 24.0718 21.8459 24.7517 20.6953 25.251C19.5446 25.7503 18.3154 26 17.0078 26C15.7001 26 14.4683 25.7503 13.3125 25.251ZM17 24.4788C17.5103 23.8019 17.9398 23.1192 18.2885 22.4307C18.6372 21.7422 18.9212 20.9897 19.1405 20.173H14.8595C15.0917 21.0153 15.3789 21.7808 15.7213 22.4693C16.0634 23.1578 16.4897 23.8276 17 24.4788ZM15.0635 24.2038C14.6802 23.6538 14.3359 23.0285 14.0308 22.328C13.7256 21.6273 13.4884 20.909 13.3192 20.173H9.927C10.4552 21.2115 11.1635 22.084 12.052 22.7905C12.9405 23.4968 13.9443 23.9679 15.0635 24.2038ZM18.9365 24.2038C20.0557 23.9679 21.0595 23.4968 21.948 22.7905C22.8365 22.084 23.5448 21.2115 24.073 20.173H20.6807C20.4794 20.9153 20.2262 21.6368 19.921 22.3375C19.616 23.0382 19.2878 23.6603 18.9365 24.2038ZM9.298 18.673H13.0155C12.9527 18.3013 12.9071 17.9369 12.8787 17.5798C12.8506 17.2228 12.8365 16.8628 12.8365 16.5C12.8365 16.1372 12.8506 15.7773 12.8787 15.4203C12.9071 15.0631 12.9527 14.6987 13.0155 14.327H9.298C9.20183 14.6667 9.12817 15.0198 9.077 15.3865C9.02567 15.7532 9 16.1243 9 16.5C9 16.8757 9.02567 17.2468 9.077 17.6135C9.12817 17.9802 9.20183 18.3333 9.298 18.673ZM14.5152 18.673H19.4848C19.5474 18.3013 19.5929 17.9402 19.6212 17.5895C19.6494 17.2388 19.6635 16.8757 19.6635 16.5C19.6635 16.1243 19.6494 15.7612 19.6212 15.4105C19.5929 15.0598 19.5474 14.6987 19.4848 14.327H14.5152C14.4526 14.6987 14.4071 15.0598 14.3787 15.4105C14.3506 15.7612 14.3365 16.1243 14.3365 16.5C14.3365 16.8757 14.3506 17.2388 14.3787 17.5895C14.4071 17.9402 14.4526 18.3013 14.5152 18.673ZM20.9845 18.673H24.702C24.7982 18.3333 24.8718 17.9802 24.923 17.6135C24.9743 17.2468 25 16.8757 25 16.5C25 16.1243 24.9743 15.7532 24.923 15.3865C24.8718 15.0198 24.7982 14.6667 24.702 14.327H20.9845C21.0473 14.6987 21.0929 15.0631 21.1212 15.4203C21.1494 15.7773 21.1635 16.1372 21.1635 16.5C21.1635 16.8628 21.1494 17.2228 21.1212 17.5798C21.0929 17.9369 21.0473 18.3013 20.9845 18.673ZM20.6807 12.827H24.073C23.5385 11.7757 22.835 10.9032 21.9625 10.2095C21.09 9.516 20.0813 9.04167 18.9365 8.7865C19.3198 9.3685 19.6608 10.0051 19.9595 10.6962C20.2583 11.3872 20.4987 12.0975 20.6807 12.827ZM14.8595 12.827H19.1405C18.9083 11.991 18.6163 11.2208 18.2645 10.5163C17.9125 9.81175 17.491 9.14675 17 8.52125C16.509 9.14675 16.0875 9.81175 15.7355 10.5163C15.3837 11.2208 15.0917 11.991 14.8595 12.827ZM9.927 12.827H13.3192C13.5012 12.0975 13.7417 11.3872 14.0405 10.6962C14.3392 10.0051 14.6802 9.3685 15.0635 8.7865C13.9122 9.04167 12.9019 9.51767 12.0328 10.2145C11.1634 10.9112 10.4615 11.782 9.927 12.827Z" fill="#618BC2"/>
</g>
</svg>
