<svg preserveAspectRatio="none" width="100%" height="100%" overflow="visible" style="display: block;" viewBox="0 0 32 32" fill="none" xmlns="http://www.w3.org/2000/svg">
<g id="Frame">
<rect width="32" height="32" rx="8" fill="url(#paint0_linear_53_8631)"/>
<rect x="0.5" y="0.5" width="31" height="31" rx="7.5" stroke="url(#paint1_linear_53_8631)" stroke-opacity="0.25"/>
<path id="Vector" d="M5.38475 24.2307V22.7307H26.6152V24.2307H5.38475ZM8.30775 21.7307C7.80258 21.7307 7.375 21.5557 7.025 21.2057C6.675 20.8557 6.5 20.4282 6.5 19.923V9.5385C6.5 9.03333 6.675 8.60575 7.025 8.25575C7.375 7.90575 7.80258 7.73075 8.30775 7.73075H23.6922C24.1974 7.73075 24.625 7.90575 24.975 8.25575C25.325 8.60575 25.5 9.03333 25.5 9.5385V19.923C25.5 20.4282 25.325 20.8557 24.975 21.2057C24.625 21.5557 24.1974 21.7307 23.6922 21.7307H8.30775ZM8.30775 20.2308H23.6922C23.7692 20.2308 23.8398 20.1988 23.9038 20.1348C23.9679 20.0706 24 20 24 19.923V9.5385C24 9.4615 23.9679 9.391 23.9038 9.327C23.8398 9.26283 23.7692 9.23075 23.6922 9.23075H8.30775C8.23075 9.23075 8.16025 9.26283 8.09625 9.327C8.03208 9.391 8 9.4615 8 9.5385V19.923C8 20 8.03208 20.0706 8.09625 20.1348C8.16025 20.1988 8.23075 20.2308 8.30775 20.2308Z" fill="url(#paint2_linear_53_8631)"/>
</g>
<defs>
<linearGradient id="paint0_linear_53_8631" x1="16" y1="0" x2="16" y2="32" gradientUnits="userSpaceOnUse">
<stop stop-color="#0068CB"/>
<stop offset="1" stop-color="#07101F"/>
</linearGradient>
<linearGradient id="paint1_linear_53_8631" x1="16" y1="0" x2="16" y2="32" gradientUnits="userSpaceOnUse">
<stop stop-color="#3EB3F0"/>
<stop offset="1" stop-color="#0068CB"/>
</linearGradient>
<linearGradient id="paint2_linear_53_8631" x1="16" y1="7.73075" x2="16" y2="24.2307" gradientUnits="userSpaceOnUse">
<stop stop-color="white"/>
<stop offset="1" stop-color="#618BC2"/>
</linearGradient>
</defs>
</svg>
