<svg preserveAspectRatio="none" width="100%" height="100%" overflow="visible" style="display: block;" viewBox="0 0 34 34" fill="none" xmlns="http://www.w3.org/2000/svg">
<g id="Frame" filter="url(#filter0_d_50_7222)">
<path d="M1 8.5C1 4.08172 4.58172 0.5 9 0.5H25C29.4183 0.5 33 4.08172 33 8.5V24.5C33 28.9183 29.4183 32.5 25 32.5H9C4.58172 32.5 1 28.9183 1 24.5V8.5Z" fill="var(--fill-0, #1E3E6B)"/>
<path id="Vector" d="M9.30775 24C8.80258 24 8.375 23.825 8.025 23.475C7.675 23.125 7.5 22.6974 7.5 22.1923V10.8077C7.5 10.3026 7.675 9.875 8.025 9.525C8.375 9.175 8.80258 9 9.30775 9H24.6923C25.1974 9 25.625 9.175 25.975 9.525C26.325 9.875 26.5 10.3026 26.5 10.8077V22.1923C26.5 22.6974 26.325 23.125 25.975 23.475C25.625 23.825 25.1974 24 24.6923 24H9.30775ZM17 17.0578L9 11.9423V22.1923C9 22.2821 9.02883 22.3558 9.0865 22.4135C9.14417 22.4712 9.21792 22.5 9.30775 22.5H24.6923C24.7821 22.5 24.8558 22.4712 24.9135 22.4135C24.9712 22.3558 25 22.2821 25 22.1923V11.9423L17 17.0578ZM17 15.5L24.8462 10.5H9.15375L17 15.5ZM9 11.9423V10.5V22.1923C9 22.2821 9.02883 22.3558 9.0865 22.4135C9.14417 22.4712 9.21792 22.5 9.30775 22.5H9V11.9423Z" fill="var(--fill-0, #E3E3E3)"/>
</g>
<defs>
<filter id="filter0_d_50_7222" x="0" y="0" width="34" height="34" filterUnits="userSpaceOnUse" color-interpolation-filters="sRGB">
<feFlood flood-opacity="0" result="BackgroundImageFix"/>
<feColorMatrix in="SourceAlpha" type="matrix" values="0 0 0 0 0 0 0 0 0 0 0 0 0 0 0 0 0 0 127 0" result="hardAlpha"/>
<feMorphology radius="0.5" operator="dilate" in="SourceAlpha" result="effect1_dropShadow_50_7222"/>
<feOffset dy="0.5"/>
<feGaussianBlur stdDeviation="0.25"/>
<feComposite in2="hardAlpha" operator="out"/>
<feColorMatrix type="matrix" values="0 0 0 0 0 0 0 0 0 0 0 0 0 0 0 0 0 0 0.05 0"/>
<feBlend mode="normal" in2="BackgroundImageFix" result="effect1_dropShadow_50_7222"/>
<feBlend mode="normal" in="SourceGraphic" in2="effect1_dropShadow_50_7222" result="shape"/>
</filter>
</defs>
</svg>
