<svg preserveAspectRatio="none" width="100%" height="100%" overflow="visible" style="display: block;" viewBox="0 0 32 32" fill="none" xmlns="http://www.w3.org/2000/svg">
<g id="Frame">
<rect width="32" height="32" rx="8" fill="url(#paint0_linear_53_8622)"/>
<rect x="0.5" y="0.5" width="31" height="31" rx="7.5" stroke="url(#paint1_linear_53_8622)" stroke-opacity="0.25"/>
<path id="Vector" d="M8.30775 23.5C7.80258 23.5 7.375 23.325 7.025 22.975C6.675 22.625 6.5 22.1974 6.5 21.6923V10.3077C6.5 9.80258 6.675 9.375 7.025 9.025C7.375 8.675 7.80258 8.5 8.30775 8.5H23.6923C24.1974 8.5 24.625 8.675 24.975 9.025C25.325 9.375 25.5 9.80258 25.5 10.3077V21.6923C25.5 22.1974 25.325 22.625 24.975 22.975C24.625 23.325 24.1974 23.5 23.6923 23.5H8.30775ZM16 16.5578L8 11.4423V21.6923C8 21.7821 8.02883 21.8558 8.0865 21.9135C8.14417 21.9712 8.21792 22 8.30775 22H23.6923C23.7821 22 23.8558 21.9712 23.9135 21.9135C23.9712 21.8558 24 21.7821 24 21.6923V11.4423L16 16.5578ZM16 15L23.8462 10H8.15375L16 15ZM8 11.4423V10V21.6923C8 21.7821 8.02883 21.8558 8.0865 21.9135C8.14417 21.9712 8.21792 22 8.30775 22H8V11.4423Z" fill="url(#paint2_linear_53_8622)"/>
</g>
<defs>
<linearGradient id="paint0_linear_53_8622" x1="16" y1="0" x2="16" y2="32" gradientUnits="userSpaceOnUse">
<stop stop-color="#0068CB"/>
<stop offset="1" stop-color="#07101F"/>
</linearGradient>
<linearGradient id="paint1_linear_53_8622" x1="16" y1="0" x2="16" y2="32" gradientUnits="userSpaceOnUse">
<stop stop-color="#3EB3F0"/>
<stop offset="1" stop-color="#0068CB"/>
</linearGradient>
<linearGradient id="paint2_linear_53_8622" x1="16" y1="8.5" x2="16" y2="23.5" gradientUnits="userSpaceOnUse">
<stop stop-color="white"/>
<stop offset="1" stop-color="#618BC2"/>
</linearGradient>
</defs>
</svg>
