<svg preserveAspectRatio="none" width="100%" height="100%" overflow="visible" style="display: block;" viewBox="0 0 34 34" fill="none" xmlns="http://www.w3.org/2000/svg">
<g id="Frame" filter="url(#filter0_d_53_8625)">
<path d="M1 8.5C1 4.08172 4.58172 0.5 9 0.5H25C29.4183 0.5 33 4.08172 33 8.5V24.5C33 28.9183 29.4183 32.5 25 32.5H9C4.58172 32.5 1 28.9183 1 24.5V8.5Z" fill="var(--fill-0, #152E51)"/>
<path id="Vector" d="M15.55 22.7L20.725 16.5H16.725L17.45 10.825L12.825 17.5H16.3L15.55 22.7ZM13.577 25.9422L14.577 19H9.952L18.1922 7.10575H19.423L18.4327 15H23.9325L14.8077 25.9422H13.577Z" fill="var(--fill-0, #E3E3E3)"/>
</g>
<defs>
<filter id="filter0_d_53_8625" x="0" y="0" width="34" height="34" filterUnits="userSpaceOnUse" color-interpolation-filters="sRGB">
<feFlood flood-opacity="0" result="BackgroundImageFix"/>
<feColorMatrix in="SourceAlpha" type="matrix" values="0 0 0 0 0 0 0 0 0 0 0 0 0 0 0 0 0 0 127 0" result="hardAlpha"/>
<feMorphology radius="0.5" operator="dilate" in="SourceAlpha" result="effect1_dropShadow_53_8625"/>
<feOffset dy="0.5"/>
<feGaussianBlur stdDeviation="0.25"/>
<feComposite in2="hardAlpha" operator="out"/>
<feColorMatrix type="matrix" values="0 0 0 0 0 0 0 0 0 0 0 0 0 0 0 0 0 0 0.05 0"/>
<feBlend mode="normal" in2="BackgroundImageFix" result="effect1_dropShadow_53_8625"/>
<feBlend mode="normal" in="SourceGraphic" in2="effect1_dropShadow_53_8625" result="shape"/>
</filter>
</defs>
</svg>
