<svg preserveAspectRatio="none" width="100%" height="100%" overflow="visible" style="display: block;" viewBox="0 0 34 34" fill="none" xmlns="http://www.w3.org/2000/svg">
<g id="Frame" filter="url(#filter0_d_50_7225)">
<path d="M1 8.5C1 4.08172 4.58172 0.5 9 0.5H25C29.4183 0.5 33 4.08172 33 8.5V24.5C33 28.9183 29.4183 32.5 25 32.5H9C4.58172 32.5 1 28.9183 1 24.5V8.5Z" fill="var(--fill-0, #0F223D)"/>
<path id="Vector" d="M17 26.2115L8.25 21.3558V11.6443L17 6.7885L25.75 11.6443V21.3558L17 26.2115ZM14.148 14.0578C14.5122 13.6449 14.941 13.3238 15.4345 13.0943C15.9282 12.8648 16.45 12.75 17 12.75C17.55 12.75 18.0718 12.8648 18.5655 13.0943C19.059 13.3238 19.4878 13.6449 19.852 14.0578L23.4098 12.075L17 8.5115L10.5903 12.075L14.148 14.0578ZM16.25 24.073V20.1828C15.3692 19.9878 14.649 19.548 14.0895 18.8635C13.5298 18.1788 13.25 17.391 13.25 16.5C13.25 16.2975 13.2632 16.1074 13.2895 15.9298C13.3157 15.7523 13.3602 15.5705 13.423 15.3845L9.75 13.327V20.4693L16.25 24.073ZM18.5953 18.0953C19.0318 17.6588 19.25 17.127 19.25 16.5C19.25 15.873 19.0318 15.3413 18.5953 14.9048C18.1588 14.4683 17.627 14.25 17 14.25C16.373 14.25 15.8413 14.4683 15.4048 14.9048C14.9683 15.3413 14.75 15.873 14.75 16.5C14.75 17.127 14.9683 17.6588 15.4048 18.0953C15.8413 18.5318 16.373 18.75 17 18.75C17.627 18.75 18.1588 18.5318 18.5953 18.0953ZM17.75 24.073L24.25 20.4693V13.327L20.577 15.3845C20.6398 15.5705 20.6843 15.7523 20.7105 15.9298C20.7368 16.1074 20.75 16.2975 20.75 16.5C20.75 17.391 20.4702 18.1788 19.9105 18.8635C19.351 19.548 18.6308 19.9878 17.75 20.1828V24.073Z" fill="var(--fill-0, #618BC2)"/>
</g>
<defs>
<filter id="filter0_d_50_7225" x="0" y="0" width="34" height="34" filterUnits="userSpaceOnUse" color-interpolation-filters="sRGB">
<feFlood flood-opacity="0" result="BackgroundImageFix"/>
<feColorMatrix in="SourceAlpha" type="matrix" values="0 0 0 0 0 0 0 0 0 0 0 0 0 0 0 0 0 0 127 0" result="hardAlpha"/>
<feMorphology radius="0.5" operator="dilate" in="SourceAlpha" result="effect1_dropShadow_50_7225"/>
<feOffset dy="0.5"/>
<feGaussianBlur stdDeviation="0.25"/>
<feComposite in2="hardAlpha" operator="out"/>
<feColorMatrix type="matrix" values="0 0 0 0 0 0 0 0 0 0 0 0 0 0 0 0 0 0 0.05 0"/>
<feBlend mode="normal" in2="BackgroundImageFix" result="effect1_dropShadow_50_7225"/>
<feBlend mode="normal" in="SourceGraphic" in2="effect1_dropShadow_50_7225" result="shape"/>
</filter>
</defs>
</svg>
